# xmcd
#
# Track frame offsets:
#  150
#  13236
#  24591
#  39548
#  52379
#  64638
#  76038
#  84249
#  97770
#  110834
#  120545
#  132715
#  144935
#  160552
#  172723
#  184495
#  197106
#  211254
#
# Disc length: 3064 seconds
#
# Revision: 4
# Processed by: cddbd v1.5.2PL0 Copyright (c) Steve Scherf et al.
# Submitted via: Collectorz.com_Music_Collector 6.11
#
DISCID=ef0bf612
DTITLE=Various Artist - Baw się razem z nami (25CDs) [CD7)
DYEAR=2006
DGENRE=Oldies - Rock/Pop - Składanka
TTITLE0=Ray Charles - Baby, Won't You Please Come Home
TTITLE1=John Lee Hooker - Boom Boom
TTITLE2=Tina Turner - Nutbush City Limits
TTITLE3=Muddy Waters - Got My Mojo Working
TTITLE4=Sam Cooke - You Send Me
TTITLE5=James Brown - Try Me
TTITLE6=Chuck Berry - Come On
TTITLE7=Etta James - At Last
TTITLE8=Booker T. and MG's - Green Onions
TTITLE9=The Pretty Things - Don't Bring Me Down
TTITLE10=The Drifters - Under The Boardwalk
TTITLE11=Solomon Burke - Everybody Needs Somebody To Love
TTITLE12=B.B. King - I Like To Live The Love
TTITLE13=The Animals - Bring It On Home To Me
TTITLE14=Little Walter - My Babe
TTITLE15=Big Joe Turner - Flip, Flop And Fly
TTITLE16=Eric Clapton and Jimmy Page - Draggin' My Tail
TTITLE17=Albert King - Cold Women With Warm Hearts
EXTD=
EXTT0=
EXTT1=
EXTT2=
EXTT3=
EXTT4=
EXTT5=
EXTT6=
EXTT7=
EXTT8=
EXTT9=
EXTT10=
EXTT11=
EXTT12=
EXTT13=
EXTT14=
EXTT15=
EXTT16=
EXTT17=
PLAYORDER=
